#N canvas 4 51 450 300 10;
#X msg 105 25 bang;
#X obj 105 142 float;
#X msg 162 25 stop;
#X obj 105 64 trigger bang bang;
#X msg 192 103 0;
#X floatatom 192 181 5 0 0 0 - - -, f 5;
#X msg 238 103 1;
#X obj 232 220 select 1;
#X msg 232 259 -1;
#X obj 105 220 select 1;
#X msg 105 259 1;
#X obj 233 181 >= 100;
#X obj 105 181 <= -100;
#X obj 105 103 metro 500;
#X obj 192 142 +;
#X connect 0 0 3 0;
#X connect 1 0 14 0;
#X connect 2 0 13 0;
#X connect 3 0 13 0;
#X connect 3 1 4 0;
#X connect 3 1 6 0;
#X connect 4 0 1 1;
#X connect 6 0 14 1;
#X connect 7 0 8 0;
#X connect 8 0 14 1;
#X connect 9 0 10 0;
#X connect 10 0 14 1;
#X connect 11 0 7 0;
#X connect 12 0 9 0;
#X connect 13 0 1 0;
#X connect 14 0 5 0;
#X connect 14 0 1 1;
#X connect 14 0 11 0;
#X connect 14 0 12 0;
